<svg width="42" height="42" viewBox="0 0 42 42" fill="none" xmlns="http://www.w3.org/2000/svg">
<path d="M26.4734 20.6122C26.4734 21.6314 26.1711 22.6277 25.6049 23.4752C25.0387 24.3226 24.2339 24.9831 23.2923 25.3731C22.3507 25.7631 21.3145 25.8652 20.3149 25.6663C19.3153 25.4675 18.3971 24.9767 17.6765 24.256C16.9558 23.5354 16.465 22.6172 16.2662 21.6176C16.0673 20.618 16.1694 19.5818 16.5594 18.6402C16.9494 17.6986 17.6099 16.8938 18.4573 16.3276C19.3048 15.7614 20.3011 15.4591 21.3203 15.4591C22.6856 15.4634 23.9939 16.0077 24.9594 16.9731C25.9248 17.9386 26.4691 19.2469 26.4734 20.6122ZM37.4237 13.5267V27.6978C37.4237 30.0895 36.4736 32.3832 34.7824 34.0744C33.0912 35.7656 30.7975 36.7157 28.4058 36.7157H14.2347C11.843 36.7157 9.54928 35.7656 7.85809 34.0744C6.1669 32.3832 5.2168 30.0895 5.2168 27.6978V13.5267C5.2168 11.135 6.1669 8.84127 7.85809 7.15008C9.54928 5.45889 11.843 4.50879 14.2347 4.50879H28.4058C30.7975 4.50879 33.0912 5.45889 34.7824 7.15008C36.4736 8.84127 37.4237 11.135 37.4237 13.5267ZM29.0499 20.6122C29.0499 19.0835 28.5966 17.589 27.7472 16.3179C26.8979 15.0467 25.6907 14.056 24.2783 13.471C22.8659 12.8859 21.3117 12.7329 19.8123 13.0311C18.3129 13.3294 16.9356 14.0655 15.8546 15.1466C14.7735 16.2276 14.0374 17.6049 13.7391 19.1043C13.4409 20.6037 13.5939 22.1579 14.179 23.5703C14.764 24.9827 15.7548 26.1899 17.0259 27.0392C18.297 27.8886 19.7915 28.3419 21.3203 28.3419C23.3703 28.3419 25.3364 27.5275 26.786 26.0779C28.2355 24.6284 29.0499 22.6623 29.0499 20.6122ZM31.6265 12.2384C31.6265 11.8563 31.5131 11.4826 31.3008 11.1649C31.0885 10.8471 30.7867 10.5994 30.4336 10.4531C30.0805 10.3069 29.6919 10.2686 29.3171 10.3432C28.9422 10.4177 28.5979 10.6018 28.3276 10.872C28.0574 11.1423 27.8733 11.4866 27.7988 11.8615C27.7242 12.2363 27.7625 12.6248 27.9087 12.978C28.055 13.3311 28.3027 13.6329 28.6205 13.8452C28.9382 14.0575 29.3119 14.1709 29.6941 14.1709C30.2066 14.1709 30.6981 13.9673 31.0605 13.6049C31.4229 13.2425 31.6265 12.751 31.6265 12.2384Z" fill="#727272"/>
</svg>
