<svg width="42" height="42" viewBox="0 0 42 42" fill="none" xmlns="http://www.w3.org/2000/svg">
<path d="M21.0287 3.5293C11.5937 3.5293 3.94531 11.1777 3.94531 20.6127C3.94531 30.0477 11.5937 37.6961 21.0287 37.6961C30.4638 37.6961 38.1122 30.0477 38.1122 20.6127C38.1122 11.1777 30.4638 3.5293 21.0287 3.5293ZM16.8469 27.6934H13.3875V16.5607H16.8469V27.6934ZM15.0958 15.1941C14.0032 15.1941 13.2967 14.42 13.2967 13.4626C13.2967 12.4856 14.0245 11.7347 15.1403 11.7347C16.2561 11.7347 16.9394 12.4856 16.9607 13.4626C16.9607 14.42 16.2561 15.1941 15.0958 15.1941ZM29.4815 27.6934H26.0221V21.5238C26.0221 20.0878 25.5202 19.1126 24.2692 19.1126C23.3136 19.1126 22.746 19.7728 22.4951 20.4081C22.4025 20.6341 22.3794 20.9544 22.3794 21.2729V27.6917H18.9182V20.1109C18.9182 18.7211 18.8737 17.5591 18.8275 16.559H21.8331L21.9915 18.1054H22.0609C22.5164 17.3793 23.6322 16.308 25.4989 16.308C27.7749 16.308 29.4815 17.8331 29.4815 21.111V27.6934Z" fill="#727272"/>
</svg>
