<svg width="217" height="46" viewBox="0 0 217 46" fill="none" xmlns="http://www.w3.org/2000/svg">
<g clip-path="url(#clip0_52_1413)">
<path d="M46.3374 46.0001H18.8161C8.43933 46.0001 0 37.6024 0 27.2832C0 16.9641 8.43933 8.56641 18.8161 8.56641H46.3374C56.7112 8.56641 65.1535 16.9612 65.1535 27.2832C65.1535 37.6053 56.7141 46.0001 46.3374 46.0001ZM18.8161 10.5605C9.54684 10.5605 2.00463 18.0629 2.00463 27.2832C2.00463 36.5036 9.54684 44.006 18.8161 44.006H46.3374C55.6066 44.006 63.1488 36.5036 63.1488 27.2832C63.1488 18.0629 55.6066 10.5605 46.3374 10.5605H18.8161Z" fill="white"/>
<path d="M12.5363 36.9601C12.3785 36.9601 12.2207 36.8031 12.2207 36.6462L12.3376 26.7834L12.2207 17.1154C12.2207 16.9585 12.3785 16.8015 12.5363 16.8015H16.6303C16.7881 16.8015 16.9459 16.9585 16.9459 17.1154L16.829 20.3245C18.3252 17.8974 20.999 16.6445 23.8715 16.6445C24.266 16.6445 24.6196 16.6823 24.9352 16.723C25.093 16.7608 25.2508 16.9585 25.2508 17.1154V20.1676C25.2508 20.3245 25.093 20.4408 24.9352 20.4408C24.6605 20.403 24.3069 20.403 23.9913 20.403C20.1749 20.403 17.1066 22.5947 16.9488 27.1729L16.9868 36.6462C16.9868 36.8031 16.829 36.9601 16.6712 36.9601H12.5392H12.5363Z" fill="white"/>
<path d="M45.7089 30.071C45.8667 30.071 46.0245 30.228 45.9836 30.3849C45.4313 34.2597 42.0883 37.431 36.6589 37.431C30.1277 37.431 26.624 33.0853 26.624 26.9404C26.624 20.7954 30.3615 16.3335 36.5011 16.3335C42.6406 16.3335 46.3372 20.56 46.457 27.4491C46.457 27.606 46.2992 27.763 46.1414 27.763H31.3463C31.5421 32.068 33.313 34.1027 36.7378 34.1027C39.2158 34.1027 40.8289 32.8906 41.3812 30.3849C41.4191 30.1902 41.6179 30.071 41.7757 30.071H45.7119H45.7089ZM36.5391 19.6211C33.7045 19.6211 32.0126 21.3419 31.5012 24.5917H41.3373C41.1415 21.9698 39.6454 19.6211 36.5361 19.6211H36.5391Z" fill="white"/>
<path d="M49.9963 21.7341C49.8385 21.7341 49.6807 21.5771 49.6807 21.4202V17.1152C49.6807 16.9582 49.8385 16.8013 49.9963 16.8013H54.4439C54.6017 16.8013 54.7595 16.9582 54.7595 17.1152V21.4202C54.7595 21.5771 54.6017 21.7341 54.4439 21.7341H49.9963ZM49.9963 36.9599C49.8385 36.9599 49.6807 36.8029 49.6807 36.6459V32.341C49.6807 32.184 49.8385 32.0271 49.9963 32.0271H54.4439C54.6017 32.0271 54.7595 32.184 54.7595 32.341V36.6459C54.7595 36.8029 54.6017 36.9599 54.4439 36.9599H49.9963Z" fill="white"/>
<path d="M94.028 41.3636C93.7913 41.3636 93.5517 41.1282 93.5517 40.8898L93.7299 37.1662C91.6493 40.1805 88.4436 41.9537 84.3438 41.9537C75.8489 41.9537 71.3926 35.0995 71.3926 26.2338C71.3926 17.368 76.2639 10.3365 84.4607 10.3365C88.4407 10.3365 91.5295 11.8742 93.6101 14.7083L93.5517 0.467948C93.5517 0.232498 93.7884 -0.00585938 94.028 -0.00585938H100.325C100.562 -0.00585938 100.802 0.229591 100.802 0.467948L100.682 19.6731L100.802 40.8869C100.802 41.1224 100.565 41.3607 100.325 41.3607H94.028V41.3636ZM86.2461 36.9918C91.059 36.9918 93.8497 33.4455 93.9082 26.414C93.9666 19.3214 91.2343 15.3624 86.4244 15.3042C81.1966 15.185 78.6426 19.2633 78.6426 25.8239C78.6426 32.8554 81.2579 36.9918 86.2461 36.9918Z" fill="white"/>
<path d="M105.968 41.3639C105.731 41.3639 105.491 41.1285 105.491 40.8901L105.669 25.9986L105.491 11.4036C105.491 11.1681 105.728 10.9298 105.968 10.9298H112.145C112.382 10.9298 112.621 11.1652 112.621 11.4036L112.443 16.2492C114.702 12.5867 118.74 10.6943 123.077 10.6943C123.67 10.6943 124.205 10.7525 124.681 10.8135C124.918 10.8717 125.158 11.1681 125.158 11.4036V16.0138C125.158 16.2492 124.921 16.4265 124.681 16.4265C124.266 16.3684 123.732 16.3684 123.255 16.3684C117.493 16.3684 112.858 19.6763 112.621 26.5916L112.68 40.893C112.68 41.1285 112.443 41.3668 112.204 41.3668H105.965L105.968 41.3639Z" fill="white"/>
<path d="M154.564 30.966C154.801 30.966 155.04 31.2015 154.979 31.4399C154.146 37.2912 149.096 42.0758 140.9 42.0758C131.037 42.0758 125.751 35.5152 125.751 26.2396C125.751 16.964 131.394 10.2261 140.663 10.2261C149.932 10.2261 155.514 16.6094 155.692 27.0099C155.692 27.2453 155.455 27.4837 155.216 27.4837H132.878C133.176 33.9833 135.847 37.0558 141.017 37.0558C144.76 37.0558 147.194 35.2245 148.027 31.4428C148.085 31.1463 148.383 30.969 148.62 30.969H154.561L154.564 30.966ZM140.721 15.188C136.443 15.188 133.889 17.7866 133.118 22.6933H147.968C147.67 18.7343 145.414 15.188 140.721 15.188Z" fill="white"/>
<path d="M172.504 42.0729C163.889 42.0729 158.483 38.4685 158.246 31.4951C158.246 31.2596 158.483 31.0212 158.722 31.0212H164.722C164.958 31.0212 165.198 31.2567 165.198 31.4951C165.376 35.5122 167.989 37.3464 172.802 37.3464C176.84 37.3464 179.277 35.7506 179.277 32.9136C179.277 26.1785 158.959 32.1462 158.959 19.6179C158.959 13.4729 163.889 10.2231 171.671 10.2231C179.453 10.2231 184.563 13.3567 185.037 19.7371C185.037 19.9725 184.8 20.2109 184.561 20.2109H178.856C178.62 20.2109 178.38 20.0336 178.322 19.7371C177.845 16.6065 175.589 14.8333 171.548 14.8333C168.044 14.8333 165.785 16.1327 165.785 19.0889C165.785 25.6495 186.103 19.4435 186.103 32.3264C186.103 38.5324 180.282 42.0758 172.501 42.0758L172.504 42.0729Z" fill="white"/>
<path d="M203.394 42.0729C194.78 42.0729 189.373 38.4685 189.137 31.4951C189.137 31.2596 189.373 31.0212 189.613 31.0212H195.612C195.849 31.0212 196.089 31.2567 196.089 31.4951C196.267 35.5122 198.879 37.3464 203.692 37.3464C207.731 37.3464 210.168 35.7506 210.168 32.9136C210.168 26.1785 189.85 32.1462 189.85 19.6179C189.85 13.4729 194.779 10.2231 202.561 10.2231C210.343 10.2231 215.454 13.3567 215.927 19.7371C215.927 19.9725 215.691 20.2109 215.451 20.2109H209.747C209.51 20.2109 209.271 20.0336 209.212 19.7371C208.736 16.6065 206.48 14.8333 202.439 14.8333C198.935 14.8333 196.676 16.1327 196.676 19.0889C196.676 25.6495 216.994 19.4435 216.994 32.3264C216.994 38.5324 211.173 42.0758 203.391 42.0758L203.394 42.0729Z" fill="white"/>
</g>
<defs>
<clipPath id="clip0_52_1413">
<rect width="217" height="46" fill="white"/>
</clipPath>
</defs>
</svg>
