<svg width="217" height="45" viewBox="0 0 217 45" fill="none" xmlns="http://www.w3.org/2000/svg">
<g clip-path="url(#clip0_2002_689)">
<path d="M41.9056 34.0329H17.0146C7.63485 34.0329 0 26.3979 0 17.0149C0 7.63197 7.63485 0 17.0146 0H41.9026C51.2854 0 58.9173 7.63499 58.9173 17.0149C58.9173 26.3949 51.2824 34.0299 41.9026 34.0299L41.9056 34.0329ZM17.0146 1.81138C8.63109 1.81138 1.81135 8.63125 1.81135 17.0149C1.81135 25.3986 8.63109 32.2185 17.0146 32.2185H41.9026C50.2862 32.2185 57.1059 25.3986 57.1059 17.0149C57.1059 8.63125 50.2892 1.81138 41.9056 1.81138H17.0146Z" fill="black"/>
<path d="M11.3385 25.8152C11.1966 25.8152 11.0547 25.6734 11.0547 25.5315L11.1604 16.5651L11.0547 7.77687C11.0547 7.63498 11.1966 7.49309 11.3385 7.49309H15.0397C15.1816 7.49309 15.3234 7.63498 15.3234 7.77687L15.2178 10.6962C16.5703 8.48935 18.9914 7.3512 21.5877 7.3512C21.9439 7.3512 22.2639 7.38742 22.5477 7.42365C22.6896 7.45988 22.8315 7.638 22.8315 7.77989V10.5543C22.8315 10.6962 22.6896 10.8049 22.5477 10.8049C22.2971 10.7687 21.9771 10.7687 21.6934 10.7687C18.2427 10.7687 15.4653 12.7612 15.3234 16.9244L15.3597 25.5375C15.3597 25.6794 15.2178 25.8213 15.0759 25.8213H11.3385V25.8152Z" fill="black"/>
<path d="M41.3384 19.5509C41.4802 19.5509 41.6221 19.6928 41.5859 19.8347C41.0878 23.3578 38.0628 26.2409 33.151 26.2409C27.243 26.2409 24.0762 22.2921 24.0762 16.704C24.0762 11.1159 27.4574 7.0614 33.0092 7.0614C38.561 7.0614 41.9059 10.9046 42.0116 17.1689C42.0116 17.3108 41.8697 17.4527 41.7278 17.4527H28.3479C28.5261 21.3683 30.1261 23.219 33.2235 23.219C35.4666 23.219 36.9247 22.117 37.4228 19.8377C37.459 19.6596 37.6372 19.5539 37.7791 19.5539H41.3384V19.5509ZM33.0454 10.0502C30.4823 10.0502 28.9517 11.617 28.4898 14.5696H37.3866C37.2085 12.1846 35.856 10.0502 33.0454 10.0502Z" fill="black"/>
<path d="M45.2135 11.9732C45.0716 11.9732 44.9297 11.8313 44.9297 11.6894V7.77377C44.9297 7.63188 45.0716 7.48999 45.2135 7.48999H49.2347C49.3766 7.48999 49.5184 7.63188 49.5184 7.77377V11.6894C49.5184 11.8313 49.3766 11.9732 49.2347 11.9732H45.2135ZM45.2135 25.8152C45.0716 25.8152 44.9297 25.6733 44.9297 25.5314V21.6158C44.9297 21.4739 45.0716 21.332 45.2135 21.332H49.2347C49.3766 21.332 49.5184 21.4739 49.5184 21.6158V25.5314C49.5184 25.6733 49.3766 25.8152 49.2347 25.8152H45.2135Z" fill="black"/>
<path d="M89.9608 44.0257C89.7163 44.0257 89.4688 43.7812 89.4688 43.5336L89.6529 39.6663C87.5035 42.797 84.1917 44.6386 79.9562 44.6386C71.1802 44.6386 66.5763 37.5198 66.5763 28.312C66.5763 19.1041 71.6088 11.8012 80.0769 11.8012C84.1887 11.8012 87.3797 13.3982 89.5291 16.3417L89.4688 1.55179C89.4688 1.30725 89.7133 1.05969 89.9608 1.05969H96.4666C96.7112 1.05969 96.9587 1.30423 96.9587 1.55179L96.8349 21.4981L96.9587 43.5306C96.9587 43.7752 96.7142 44.0227 96.4666 44.0227H89.9608V44.0257ZM81.9215 39.4852C86.8936 39.4852 89.7767 35.802 89.8371 28.4991C89.8975 21.1329 87.0748 17.021 82.1056 16.9606C76.7048 16.8369 74.0662 21.0725 74.0662 27.8863C74.0662 35.1892 76.7682 39.4852 81.9215 39.4852Z" fill="black"/>
<path d="M102.297 44.0257C102.052 44.0257 101.805 43.7811 101.805 43.5336L101.989 28.0674L101.805 12.9091C101.805 12.6646 102.049 12.417 102.297 12.417H108.679C108.923 12.417 109.171 12.6616 109.171 12.9091L108.987 17.9417C111.32 14.1378 115.492 12.1725 119.973 12.1725C120.585 12.1725 121.138 12.2329 121.63 12.2963C121.874 12.3566 122.122 12.6646 122.122 12.9091V17.6972C122.122 17.9417 121.877 18.1259 121.63 18.1259C121.201 18.0655 120.649 18.0655 120.157 18.0655C114.203 18.0655 109.415 21.5011 109.171 28.6833L109.231 43.5366C109.231 43.7811 108.987 44.0287 108.739 44.0287H102.294L102.297 44.0257Z" fill="black"/>
<path d="M152.497 33.2237C152.742 33.2237 152.989 33.4683 152.926 33.7158C152.065 39.793 146.849 44.7623 138.381 44.7623C128.192 44.7623 122.73 37.9484 122.73 28.3149C122.73 18.6813 128.56 11.6833 138.136 11.6833C147.712 11.6833 153.478 18.313 153.662 29.1149C153.662 29.3594 153.418 29.607 153.17 29.607H130.094C130.402 36.3574 133.161 39.5485 138.501 39.5485C142.369 39.5485 144.883 37.6465 145.744 33.7188C145.804 33.4109 146.112 33.2268 146.357 33.2268H152.494L152.497 33.2237ZM138.199 16.8367C133.78 16.8367 131.141 19.5357 130.344 24.6317H145.686C145.378 20.5199 143.048 16.8367 138.199 16.8367Z" fill="black"/>
<path d="M171.034 44.7624C162.134 44.7624 156.549 41.0188 156.305 33.7763C156.305 33.5318 156.549 33.2842 156.797 33.2842H162.994C163.239 33.2842 163.487 33.5288 163.487 33.7763C163.671 37.9485 166.37 39.8535 171.342 39.8535C175.514 39.8535 178.032 38.1961 178.032 35.2496C178.032 28.2546 157.041 34.4526 157.041 21.4408C157.041 15.0587 162.134 11.6835 170.173 11.6835C178.213 11.6835 183.493 14.9379 183.982 21.5646C183.982 21.8091 183.737 22.0567 183.49 22.0567H177.597C177.352 22.0567 177.105 21.8725 177.045 21.5646C176.552 18.3131 174.222 16.4716 170.047 16.4716C166.427 16.4716 164.093 17.821 164.093 20.8913C164.093 27.7052 185.084 21.2597 185.084 34.6398C185.084 41.0853 179.07 44.7654 171.031 44.7654L171.034 44.7624Z" fill="black"/>
<path d="M202.946 44.7623C194.046 44.7623 188.461 41.0187 188.217 33.7762C188.217 33.5317 188.461 33.2841 188.709 33.2841H194.907C195.151 33.2841 195.399 33.5286 195.399 33.7762C195.583 37.9484 198.282 39.8534 203.254 39.8534C207.426 39.8534 209.944 38.196 209.944 35.2495C209.944 28.2545 188.953 34.4525 188.953 21.4407C188.953 15.0586 194.046 11.6833 202.086 11.6833C210.125 11.6833 215.405 14.9378 215.894 21.5645C215.894 21.809 215.65 22.0565 215.402 22.0565H209.509C209.265 22.0565 209.017 21.8724 208.957 21.5645C208.465 18.313 206.134 16.4714 201.959 16.4714C198.339 16.4714 196.006 17.8209 196.006 20.8912C196.006 27.705 216.996 21.2595 216.996 34.6396C216.996 41.0851 210.982 44.7653 202.943 44.7653L202.946 44.7623Z" fill="black"/>
</g>
<defs>
<clipPath id="clip0_2002_689">
<rect width="217" height="44.7623" fill="white"/>
</clipPath>
</defs>
</svg>
