<svg width="227" height="131" viewBox="0 0 227 131" fill="none" xmlns="http://www.w3.org/2000/svg">
<path d="M161.22 130.204H65.4661C29.3626 130.204 0 100.995 0 65.1021C0 29.2095 29.3626 0 65.4661 0H161.22C197.313 0 226.686 29.1994 226.686 65.1021C226.686 101.005 197.323 130.204 161.22 130.204ZM65.4661 6.93586C33.216 6.93586 6.97464 33.0313 6.97464 65.1021C6.97464 97.1728 33.216 123.268 65.4661 123.268H161.22C193.47 123.268 219.711 97.1728 219.711 65.1021C219.711 33.0313 193.47 6.93586 161.22 6.93586H65.4661Z" fill="white"/>
<path d="M43.6166 98.7605C43.0676 98.7605 42.5186 98.2146 42.5186 97.6686L42.9252 63.3634L42.5186 29.7356C42.5186 29.1896 43.0676 28.6436 43.6166 28.6436H57.8607C58.4098 28.6436 58.9588 29.1896 58.9588 29.7356L58.5521 40.8977C63.7577 32.4553 73.0606 28.0977 83.0549 28.0977C84.4274 28.0977 85.6576 28.2291 86.7557 28.3706C87.3047 28.5021 87.8537 29.1896 87.8537 29.7356V40.3517C87.8537 40.8977 87.3047 41.3021 86.7557 41.3021C85.8 41.1706 84.5698 41.1706 83.4717 41.1706C70.1934 41.1706 59.518 48.794 58.969 64.7182L59.1011 97.6686C59.1011 98.2146 58.5521 98.7605 58.0031 98.7605H43.6268H43.6166Z" fill="white"/>
<path d="M159.034 74.7982C159.583 74.7982 160.132 75.3442 159.99 75.8902C158.068 89.3676 146.437 100.398 127.547 100.398C104.823 100.398 92.6328 85.2829 92.6328 63.9091C92.6328 42.5354 105.637 27.0156 126.998 27.0156C148.359 27.0156 161.22 41.7164 161.637 65.6785C161.637 66.2245 161.088 66.7704 160.539 66.7704H109.063C109.744 81.7442 115.905 88.8216 127.821 88.8216C136.443 88.8216 142.055 84.6055 143.977 75.8902C144.109 75.2128 144.8 74.7982 145.349 74.7982H159.044H159.034ZM127.13 38.4507C117.268 38.4507 111.381 44.4362 109.602 55.7398H143.824C143.143 46.62 137.937 38.4507 127.12 38.4507H127.13Z" fill="white"/>
<path d="M173.949 45.8012C173.4 45.8012 172.851 45.2552 172.851 44.7093V29.7355C172.851 29.1895 173.4 28.6436 173.949 28.6436H189.423C189.973 28.6436 190.522 29.1895 190.522 29.7355V44.7093C190.522 45.2552 189.973 45.8012 189.423 45.8012H173.949ZM173.949 98.7605C173.4 98.7605 172.851 98.2145 172.851 97.6685V82.6947C172.851 82.1488 173.4 81.6028 173.949 81.6028H189.423C189.973 81.6028 190.522 82.1488 190.522 82.6947V97.6685C190.522 98.2145 189.973 98.7605 189.423 98.7605H173.949Z" fill="white"/>
</svg>
