<svg width="1680" height="456" viewBox="0 0 1680 456" fill="none" xmlns="http://www.w3.org/2000/svg">
<g filter="url(#filter0_d_52_35)">
<path d="M-179 -66C508.72 -66 1196.44 -66 1905 -66C1905 114.84 1905 295.68 1905 482C1217.28 482 529.56 482 -179 482C-179 301.16 -179 120.32 -179 -66Z" fill="#FEFEFE"/>
<path d="M288.061 117.86C289.217 117.855 289.217 117.855 290.396 117.851C292.957 117.842 295.519 117.841 298.08 117.839C299.925 117.835 301.771 117.829 303.616 117.824C308.617 117.811 313.617 117.805 318.618 117.8C321.749 117.797 324.88 117.793 328.012 117.789C337.829 117.775 347.647 117.765 357.464 117.761C368.758 117.757 380.052 117.739 391.346 117.71C400.101 117.689 408.855 117.679 417.61 117.677C422.826 117.676 428.043 117.671 433.26 117.653C438.176 117.636 443.091 117.634 448.007 117.643C449.798 117.643 451.589 117.639 453.38 117.629C467.911 117.553 482.171 118.804 496 123.625C496.735 123.878 497.47 124.131 498.227 124.392C526.073 134.408 549.25 154.897 561.937 181.688C575.859 212.152 576.044 241.836 564.883 273.106C554.791 300.074 532.853 321.888 506.954 333.953C489.071 341.941 470.993 344.618 451.542 344.502C449.693 344.506 447.844 344.511 445.995 344.518C441.041 344.532 436.087 344.521 431.132 344.505C425.911 344.491 420.69 344.497 415.468 344.501C406.71 344.503 397.952 344.49 389.193 344.467C379.107 344.44 369.021 344.438 358.935 344.45C349.174 344.461 339.414 344.455 329.654 344.441C325.525 344.435 321.396 344.435 317.268 344.44C312.398 344.445 307.529 344.434 302.66 344.413C300.887 344.407 299.113 344.407 297.339 344.412C263.782 344.495 234.89 332.554 211 309C210.208 308.222 209.417 307.443 208.602 306.641C193.457 290.806 185.8 271.016 181 250C180.819 249.214 180.638 248.429 180.451 247.619C175.614 219.558 183.228 189.906 199.242 166.664C216.939 142.156 242.435 125.474 272 119C277.381 118.224 282.621 117.853 288.061 117.86Z" fill="#FDFDFD"/>
<path d="M768 64C782.85 64 797.7 64 813 64C814.553 65.5528 814.126 67.0191 814.126 69.1808C814.129 70.0878 814.131 70.9949 814.134 71.9294C814.132 72.9375 814.13 73.9455 814.127 74.9841C814.129 76.046 814.13 77.1079 814.132 78.2019C814.136 81.7896 814.133 85.3772 814.13 88.9648C814.131 91.5249 814.133 94.085 814.135 96.6451C814.139 102.894 814.138 109.144 814.136 115.393C814.133 120.47 814.133 125.547 814.134 130.623C814.134 131.344 814.134 132.066 814.135 132.809C814.135 134.273 814.135 135.738 814.135 137.203C814.138 150.955 814.135 164.706 814.13 178.458C814.125 190.271 814.126 202.083 814.131 213.896C814.136 227.596 814.138 241.297 814.135 254.998C814.135 256.458 814.134 257.917 814.134 259.377C814.134 260.095 814.134 260.813 814.134 261.553C814.133 266.627 814.134 271.7 814.137 276.774C814.14 283.596 814.137 290.419 814.132 297.241C814.13 299.753 814.131 302.265 814.133 304.777C814.136 308.19 814.132 311.603 814.127 315.016C814.129 316.024 814.132 317.032 814.134 318.071C814.131 318.978 814.129 319.885 814.126 320.819C814.126 321.608 814.126 322.397 814.126 323.21C814 325 814 325 813 326C811.624 326.098 810.243 326.128 808.864 326.129C807.986 326.133 807.108 326.136 806.204 326.139C805.25 326.137 804.296 326.135 803.313 326.133C801.853 326.134 801.853 326.134 800.365 326.136C798.303 326.136 796.242 326.135 794.181 326.13C791.014 326.125 787.847 326.13 784.68 326.137C782.683 326.136 780.685 326.135 778.688 326.133C777.734 326.135 776.779 326.137 775.796 326.139C774.919 326.136 774.041 326.133 773.137 326.129C772.361 326.129 771.584 326.128 770.784 326.127C769 326 769 326 768 325C767.913 323.292 767.893 321.581 767.903 319.871C767.906 318.837 767.909 317.802 767.912 316.736C767.921 315.648 767.929 314.559 767.938 313.438C767.942 312.345 767.947 311.253 767.951 310.127C767.963 307.418 767.98 304.709 768 302C766.983 303.178 766.983 303.178 765.946 304.379C753.647 318.368 737.614 328.832 718.483 330.177C705.335 330.48 693.536 330.232 681 326C680.062 325.7 679.123 325.399 678.156 325.09C659.926 318.591 645.806 302.654 637.688 285.562C623.866 255.131 622.189 216.304 633.805 184.819C642.688 161.997 657.384 144.144 680.063 134.125C700.664 126.312 723.085 126.603 743.266 135.585C752.582 140.033 761.21 146.315 767 155C767.33 124.97 767.66 94.94 768 64Z" fill="#010101"/>
<path d="M1100 133C1101.58 133.561 1101.58 133.561 1103.19 134.133C1125.95 142.899 1142.95 159.678 1152.87 181.95C1160.13 199.398 1163.28 218.157 1162 237C1161 238 1161 238 1158.64 238.123C1157.06 238.122 1157.06 238.122 1155.45 238.121C1154.25 238.122 1153.04 238.123 1151.8 238.125C1150.45 238.121 1149.11 238.118 1147.76 238.114C1146.35 238.114 1144.94 238.114 1143.53 238.114C1139.7 238.115 1135.86 238.109 1132.02 238.102C1128.02 238.095 1124.01 238.095 1120.01 238.094C1112.42 238.091 1104.83 238.082 1097.24 238.072C1088.6 238.061 1079.96 238.056 1071.32 238.051C1053.55 238.04 1035.77 238.023 1018 238C1018.31 240.567 1018.63 243.133 1018.95 245.7C1019.03 246.422 1019.12 247.145 1019.21 247.89C1021.07 262.927 1025.14 278.923 1037.38 288.938C1049.22 297.316 1062.75 299.37 1077 298C1088.18 295.991 1097.59 291.859 1104.73 282.832C1108.87 276.858 1110.98 270.361 1113.07 263.442C1114 261 1114 261 1116 260C1119.05 259.901 1122.08 259.861 1125.13 259.867C1126.03 259.867 1126.94 259.866 1127.87 259.865C1129.79 259.864 1131.7 259.866 1133.61 259.87C1136.55 259.875 1139.5 259.87 1142.44 259.864C1144.29 259.864 1146.15 259.866 1148 259.867C1149.33 259.864 1149.33 259.864 1150.69 259.861C1156.89 259.885 1156.89 259.885 1158 261C1157.35 279.926 1147.33 296.237 1134 309C1115.97 324.665 1092.31 331.438 1068.75 331.313C1067.66 331.309 1066.57 331.304 1065.45 331.3C1056.63 331.177 1048.54 330.217 1040 328C1038.89 327.722 1037.78 327.443 1036.63 327.157C1024.46 323.77 1013.6 318.226 1004 310C1003.41 309.554 1002.82 309.108 1002.22 308.649C984.799 295.081 976.333 271.27 972.625 250.313C970.735 233.827 971.226 217.153 975 201C975.244 199.778 975.488 198.556 975.739 197.297C979.063 182.487 986.662 168.116 997 157C997.662 156.249 998.323 155.497 999.004 154.723C1022.83 129.059 1067.45 120.795 1100 133Z" fill="#010101"/>
<path d="M1525.56 147.563C1527.06 149.021 1528.54 150.498 1530 152C1530.57 152.562 1531.14 153.124 1531.73 153.703C1539.69 162.138 1543.81 173.606 1545 185C1544.7 187.338 1544.37 189.672 1544 192C1538.34 192.049 1532.68 192.086 1527.02 192.11C1525.09 192.12 1523.17 192.134 1521.24 192.151C1518.48 192.175 1515.71 192.187 1512.95 192.195C1512.08 192.206 1511.22 192.216 1510.33 192.227C1508.22 192.227 1506.11 192.123 1504 192C1501.44 189.438 1501.17 187.367 1500.25 183.875C1497.2 173.734 1492.28 168.053 1483 163C1470.9 157.262 1453.06 156.75 1440.36 160.957C1433.63 163.93 1428.49 167.45 1425 174C1423.03 179.911 1423.2 186.629 1425.19 192.5C1431.13 200.696 1441.37 203.701 1450.93 205.441C1453.39 205.83 1455.85 206.203 1458.31 206.563C1459.63 206.769 1460.96 206.976 1462.28 207.186C1464.93 207.605 1467.58 208.016 1470.24 208.422C1526.91 217.126 1526.91 217.126 1542.83 237.324C1552.39 251.028 1553.21 268.068 1550.63 284.308C1547.36 297.577 1536.91 308.948 1525.67 316.129C1522.18 318.223 1518.62 320.132 1515 322C1514.2 322.413 1513.4 322.825 1512.58 323.25C1503.99 327.144 1494.24 328.385 1485 330C1483.91 330.197 1482.81 330.395 1481.68 330.598C1465.2 332.398 1448.18 331.59 1432 328C1430.78 327.733 1429.55 327.466 1428.29 327.191C1409.67 322.484 1393.13 312.661 1383 296C1377.29 285.481 1373.51 274.088 1375 262C1377.66 259.339 1379.65 259.751 1383.27 259.722C1384.56 259.728 1384.56 259.728 1385.88 259.734C1386.76 259.733 1387.64 259.731 1388.54 259.729C1390.41 259.727 1392.27 259.731 1394.13 259.739C1396.99 259.75 1399.85 259.739 1402.7 259.727C1404.51 259.728 1406.32 259.731 1408.12 259.734C1408.98 259.73 1409.84 259.726 1410.73 259.722C1416.77 259.77 1416.77 259.77 1419 262C1419.5 264.342 1419.93 266.699 1420.31 269.063C1422.28 279.744 1426.12 286.622 1435 293C1447.95 301.738 1466.46 301.627 1481.31 298.875C1490.02 296.712 1498.41 294.003 1503.69 286.375C1507.34 280.236 1507.74 274.038 1507 267C1503.75 260.382 1498.74 256.907 1491.88 254.563C1481.31 251.081 1470.25 249.478 1459.32 247.578C1402.47 237.685 1402.47 237.685 1386 216C1378.26 203.889 1377.02 188.136 1379.73 174.274C1384.45 157.862 1394.35 146.192 1409.17 137.946C1441.98 120.953 1496.88 122.435 1525.56 147.563Z" fill="#020202"/>
<path d="M1329.25 147.313C1341.2 158.638 1347.24 170.724 1349 187C1348.46 190.538 1348.46 190.538 1347 192C1344.04 192.089 1341.11 192.116 1338.15 192.098C1336.82 192.096 1336.82 192.096 1335.47 192.094C1332.62 192.088 1329.78 192.076 1326.94 192.063C1325.01 192.058 1323.09 192.053 1321.17 192.049C1316.45 192.038 1311.72 192.021 1307 192C1306.74 191.196 1306.49 190.393 1306.22 189.564C1305.7 187.966 1305.7 187.966 1305.17 186.336C1304.83 185.285 1304.49 184.233 1304.14 183.15C1300.69 173.634 1295.62 167.189 1286.48 162.785C1274 157.522 1257.19 156.697 1244.26 161.02C1237.29 164.043 1232.16 167.571 1228.75 174.563C1227.34 181.03 1226.77 187.446 1229.69 193.5C1239.79 204.427 1254.77 205.773 1268.87 207.597C1327.63 215.227 1327.63 215.227 1346 236C1353.45 245.847 1355.57 256.148 1355.5 268.313C1355.49 269.416 1355.49 270.52 1355.48 271.657C1355.3 280.113 1354.23 286.557 1350 294C1349.49 294.957 1348.98 295.913 1348.46 296.899C1338.2 314.65 1319.62 323.064 1300.63 328.347C1293.49 330.121 1286.34 330.725 1279 331C1278.06 331.037 1277.12 331.074 1276.16 331.113C1248.51 332.028 1220.21 328.633 1198.28 310.16C1187.76 300.198 1179.49 286.027 1178.83 271.279C1178.85 270.058 1178.87 268.836 1178.89 267.578C1178.91 266.34 1178.92 265.101 1178.94 263.826C1178.96 262.893 1178.98 261.961 1179 261C1185.11 260.976 1191.21 260.957 1197.32 260.945C1199.4 260.94 1201.47 260.933 1203.55 260.925C1206.53 260.913 1209.51 260.907 1212.5 260.903C1213.9 260.895 1213.9 260.895 1215.33 260.887C1216.19 260.887 1217.05 260.887 1217.94 260.887C1218.7 260.885 1219.46 260.882 1220.25 260.88C1222 261 1222 261 1223 262C1223.3 263.808 1223.56 265.622 1223.81 267.438C1225.24 276.294 1227.68 284.737 1234.9 290.524C1248.45 300.283 1268 301.325 1284.15 299.229C1292.81 297.799 1301.52 294.07 1307 287C1310.55 280.788 1311.83 275.113 1311 268C1309.41 262.914 1306.26 259.781 1301.65 257.263C1290.99 252.181 1279.84 250.015 1268.25 248.345C1264.18 247.755 1260.12 247.114 1256.05 246.473C1254.87 246.286 1254.87 246.286 1253.66 246.095C1232.24 242.675 1206.2 237.582 1192.09 219.567C1182.68 205.831 1181.27 191.08 1183.75 175C1186.8 160.968 1195.34 149.276 1207.19 141.375C1240.56 121.04 1298.82 121.076 1329.25 147.313Z" fill="#010101"/>
<path d="M288.061 117.86C289.217 117.855 289.217 117.855 290.396 117.851C292.957 117.842 295.519 117.841 298.08 117.839C299.925 117.835 301.771 117.829 303.616 117.824C308.617 117.811 313.617 117.805 318.618 117.8C321.749 117.797 324.88 117.793 328.012 117.789C337.829 117.775 347.647 117.765 357.464 117.761C368.758 117.757 380.052 117.739 391.346 117.71C400.101 117.689 408.855 117.679 417.61 117.677C422.826 117.676 428.043 117.671 433.26 117.653C438.176 117.636 443.091 117.634 448.007 117.643C449.798 117.643 451.589 117.639 453.38 117.629C467.911 117.553 482.171 118.804 496 123.625C496.735 123.878 497.47 124.131 498.227 124.392C526.073 134.408 549.25 154.897 561.937 181.688C575.859 212.152 576.044 241.836 564.883 273.106C554.791 300.074 532.853 321.888 506.954 333.953C489.071 341.941 470.993 344.618 451.542 344.502C449.693 344.506 447.844 344.511 445.995 344.518C441.041 344.532 436.087 344.521 431.132 344.505C425.911 344.491 420.69 344.497 415.468 344.501C406.71 344.503 397.952 344.49 389.193 344.467C379.107 344.44 369.021 344.438 358.935 344.45C349.174 344.461 339.414 344.455 329.654 344.441C325.525 344.435 321.396 344.435 317.268 344.44C312.398 344.445 307.529 344.434 302.66 344.413C300.887 344.407 299.113 344.407 297.339 344.412C263.782 344.495 234.89 332.554 211 309C210.208 308.222 209.417 307.443 208.602 306.641C193.457 290.806 185.8 271.016 181 250C180.819 249.214 180.638 248.429 180.451 247.619C175.614 219.558 183.228 189.906 199.242 166.664C216.939 142.156 242.435 125.474 272 119C277.381 118.224 282.621 117.853 288.061 117.86ZM224 157C223.241 157.656 222.481 158.313 221.699 158.989C203.411 176.104 192.895 201.598 191.676 226.352C191.337 237.902 192.424 248.003 196 259C196.362 260.189 196.724 261.377 197.098 262.602C201.173 275.064 207.552 285.988 216 296C216.495 296.64 216.99 297.279 217.5 297.938C232.565 316.618 256.564 327.909 280 331C286.366 331.504 292.756 331.402 299.137 331.373C301.012 331.375 302.886 331.379 304.76 331.384C309.806 331.393 314.851 331.384 319.896 331.37C325.2 331.359 330.503 331.363 335.806 331.365C344.705 331.366 353.605 331.355 362.504 331.336C372.768 331.315 383.031 331.312 393.295 331.318C403.206 331.324 413.116 331.318 423.027 331.307C427.228 331.302 431.43 331.301 435.632 331.303C440.584 331.305 445.536 331.297 450.488 331.281C452.297 331.277 454.106 331.276 455.915 331.279C468.426 331.295 480.357 330.749 492.25 326.438C492.961 326.182 493.672 325.926 494.405 325.662C506.962 320.932 518.087 314.042 528 305C528.766 304.316 529.531 303.631 530.32 302.926C548.106 286.163 559.403 261.836 560.238 237.418C560.78 207.115 553.265 183.22 532 161C530.989 159.877 530.989 159.877 529.957 158.731C513.763 141.382 488.582 130.64 464.981 129.811C460.26 129.709 455.539 129.718 450.817 129.726C449.009 129.721 447.201 129.716 445.392 129.71C440.512 129.697 435.632 129.696 430.751 129.699C426.661 129.7 422.571 129.695 418.482 129.69C408.823 129.679 399.164 129.679 389.506 129.685C379.579 129.691 369.652 129.678 359.725 129.657C351.169 129.639 342.613 129.633 334.057 129.637C328.962 129.638 323.867 129.636 318.771 129.622C313.974 129.609 309.178 129.611 304.381 129.624C302.633 129.627 300.885 129.624 299.138 129.616C270.407 129.489 245.746 138.206 224 157Z" fill="#060606"/>
<path d="M946.106 131.867C947.254 131.866 948.401 131.865 949.584 131.863C951.368 131.869 951.368 131.869 953.188 131.875C954.388 131.871 955.589 131.867 956.826 131.863C958.542 131.865 958.542 131.865 960.293 131.867C961.34 131.868 962.387 131.869 963.466 131.871C966 132 966 132 968 133C968.025 137.824 968.043 142.648 968.055 147.471C968.06 149.114 968.067 150.756 968.076 152.398C968.088 154.754 968.093 157.109 968.098 159.465C968.103 160.203 968.108 160.942 968.114 161.703C968.114 163.469 968.062 165.235 968 167C966.419 168.581 964.775 168.164 962.582 168.211C961.664 168.237 960.746 168.263 959.8 168.29C958.814 168.318 957.828 168.346 956.813 168.375C936.221 169.15 918.781 174.001 904.168 189.312C890.317 206.483 889.404 226.598 889.426 247.719C889.413 249.957 889.399 252.194 889.383 254.432C889.345 260.264 889.33 266.096 889.32 271.929C889.3 281.318 889.244 290.707 889.192 300.097C889.176 303.372 889.169 306.648 889.163 309.924C889.156 311.911 889.149 313.898 889.142 315.885C889.143 317.256 889.143 317.256 889.144 318.655C889.113 324.887 889.113 324.887 888 326C886.619 326.093 885.232 326.117 883.848 326.114C882.967 326.113 882.086 326.113 881.178 326.113C880.221 326.108 879.264 326.103 878.277 326.098C877.302 326.096 876.327 326.095 875.322 326.093C872.194 326.088 869.066 326.075 865.938 326.062C863.822 326.057 861.707 326.053 859.592 326.049C854.395 326.038 849.197 326.021 844 326C843.977 300.984 843.959 275.967 843.948 250.951C843.943 239.336 843.936 227.721 843.925 216.107C843.915 205.987 843.908 195.868 843.906 185.748C843.905 180.387 843.902 175.025 843.894 169.663C843.888 164.623 843.886 159.583 843.887 154.542C843.887 152.687 843.885 150.831 843.881 148.975C843.876 146.453 843.877 143.931 843.88 141.409C843.877 140.665 843.874 139.921 843.871 139.154C843.886 134.114 843.886 134.114 845 133C846.346 132.902 847.696 132.872 849.045 132.871C849.903 132.867 850.76 132.864 851.644 132.861C852.576 132.863 853.508 132.865 854.469 132.867C855.895 132.866 855.895 132.866 857.35 132.864C859.364 132.864 861.378 132.865 863.392 132.87C866.487 132.875 869.581 132.87 872.676 132.863C874.628 132.864 876.58 132.865 878.531 132.867C879.93 132.864 879.93 132.864 881.356 132.861C882.214 132.864 883.072 132.867 883.955 132.871C884.714 132.871 885.473 132.872 886.254 132.873C888 133 888 133 889 134C889.088 136.219 889.107 138.44 889.098 140.66C889.096 141.325 889.095 141.989 889.094 142.674C889.088 144.803 889.075 146.933 889.063 149.062C889.058 150.503 889.053 151.944 889.049 153.385C889.038 156.923 889.021 160.462 889 164C889.453 163.403 889.905 162.806 890.371 162.192C903.554 144.987 923.746 131.891 946.106 131.867Z" fill="#010101"/>
<path d="M749.286 169.613C758.23 176.778 764.353 187.899 767 199C767.276 200.007 767.552 201.013 767.836 202.051C773.683 227.019 772.224 256.618 759.184 279.137C753.29 287.865 745.433 294.019 735.387 297.344C722.17 299.905 708.222 299.26 696.813 291.812C682.435 281.012 676.237 264.591 673.575 247.266C670.651 224.184 671.504 197.412 685.539 177.855C701.173 158 729.016 155.303 749.286 169.613Z" fill="#FDFDFD"/>
<path d="M400.062 164.75C401.322 164.735 401.322 164.735 402.606 164.721C417.049 164.8 431.331 170.012 442.039 179.879C454.827 193.822 460.288 212.033 460.168 230.664C460 233 460 233 459 234C456.2 234.095 453.425 234.126 450.625 234.114C449.308 234.114 449.308 234.114 447.964 234.114C445.048 234.113 442.131 234.105 439.215 234.098C437.198 234.096 435.182 234.094 433.166 234.093C427.847 234.09 422.529 234.08 417.211 234.069C411.788 234.058 406.366 234.054 400.943 234.049C390.295 234.038 379.648 234.021 369 234C369.308 236.091 369.619 238.182 369.933 240.272C370.106 241.436 370.279 242.6 370.457 243.8C372.097 253.468 376.537 261.938 384.437 267.812C393.568 272.044 403.406 272.515 413 269.312C420.494 266.174 423.45 261.67 426.789 254.5C427.189 253.675 427.588 252.85 428 252C428.401 251.134 428.802 250.267 429.216 249.374C431 247 431 247 433.635 246.432C434.667 246.459 435.699 246.485 436.762 246.512C437.88 246.528 438.998 246.544 440.15 246.561C441.318 246.602 442.485 246.644 443.687 246.688C444.866 246.71 446.045 246.733 447.26 246.756C450.174 246.815 453.087 246.897 456 247C457.799 256.571 453.388 264.449 448.117 272.355C439.012 283.728 426.186 289.824 412 292C394.62 293.597 376.478 291.791 362.246 280.891C348.195 268.745 341.334 253.375 339.836 234.987C339.002 220.766 341.022 206.553 348 194C348.516 193.064 349.031 192.128 349.562 191.164C357.306 178.078 368.581 171.232 382.551 166.055C388.241 164.62 394.226 164.814 400.062 164.75Z" fill="#020202"/>
<path d="M321.938 166.875C322.813 166.884 323.687 166.893 324.588 166.902C326.726 166.925 328.863 166.961 331 167C332.193 169.384 332.13 170.876 332.133 173.535C332.134 174.426 332.136 175.318 332.137 176.236C332.133 177.169 332.129 178.101 332.125 179.062C332.129 179.999 332.133 180.935 332.137 181.9C332.136 182.79 332.135 183.68 332.133 184.597C332.132 185.417 332.131 186.237 332.13 187.082C332 189 332 189 331 190C328.476 190.187 325.966 190.326 323.438 190.437C311.353 191.101 300.489 193.754 292 203C283.544 214.116 282.557 226.357 282.524 239.918C282.509 241.311 282.494 242.703 282.477 244.096C282.435 247.721 282.41 251.345 282.389 254.97C282.353 260.808 282.292 266.646 282.231 272.484C282.212 274.519 282.2 276.554 282.189 278.589C282.174 280.422 282.174 280.423 282.158 282.293C282.152 283.374 282.145 284.455 282.138 285.568C282 288 282 288 281 289C279.086 289.099 277.168 289.13 275.25 289.132C274.085 289.134 272.92 289.135 271.719 289.136C270.492 289.132 269.265 289.129 268 289.125C266.16 289.13 266.16 289.13 264.282 289.136C263.116 289.135 261.951 289.134 260.75 289.132C259.673 289.131 258.595 289.13 257.485 289.129C255 289 255 289 254 288C253.905 286.443 253.879 284.883 253.88 283.324C253.879 282.313 253.877 281.302 253.876 280.26C253.88 279.141 253.883 278.023 253.887 276.87C253.887 275.7 253.887 274.529 253.886 273.323C253.887 270.104 253.892 266.886 253.899 263.667C253.905 260.306 253.906 256.946 253.907 253.585C253.91 247.217 253.918 240.849 253.928 234.482C253.94 227.234 253.945 219.986 253.95 212.738C253.961 197.825 253.978 182.913 254 168C258.48 167.971 262.959 167.953 267.438 167.937C268.717 167.929 269.997 167.92 271.315 167.912C273.137 167.907 273.137 167.907 274.996 167.902C276.122 167.897 277.248 167.891 278.408 167.886C281 168 281 168 282 169C282.237 171.692 282.422 174.365 282.563 177.062C282.606 177.821 282.649 178.579 282.694 179.361C282.8 181.24 282.901 183.12 283 185C283.499 184.431 283.998 183.863 284.512 183.277C294.831 172.18 306.849 166.576 321.938 166.875Z" fill="#010101"/>
<path d="M1095.87 169.27C1104.12 175.632 1109.64 185.964 1112 196C1112.5 201.445 1112.5 201.445 1113 207C1082.31 207 1051.62 207 1020 207C1020 193.671 1025.72 181.283 1034.88 171.563C1052.07 155.684 1077.24 156.605 1095.87 169.27Z" fill="#FDFDFD"/>
<path d="M416 189C423.393 193.976 427.179 201.391 429 210C429 211.65 429 213.3 429 215C409.53 215 390.06 215 370 215C371.19 205.479 373.707 197.577 380.938 190.937C391.122 183.118 404.888 181.888 416 189Z" fill="#F7F7F7"/>
<path d="M487.031 258.734C488.234 258.732 489.436 258.729 490.676 258.727C491.938 258.734 493.2 258.742 494.5 258.75C495.762 258.742 497.024 258.735 498.324 258.727C499.527 258.729 500.729 258.732 501.969 258.734C503.076 258.737 504.184 258.739 505.326 258.741C508 259 508 259 510 261C510.243 263.69 510.243 263.69 510.23 267.066C510.228 268.274 510.226 269.481 510.224 270.725C510.206 272.624 510.206 272.624 510.187 274.562C510.187 275.833 510.186 277.103 510.185 278.412C510.14 287.86 510.14 287.86 509 289C506.866 289.1 504.729 289.131 502.594 289.133C501.293 289.134 499.992 289.135 498.652 289.137C497.971 289.135 497.291 289.133 496.589 289.13C494.508 289.125 492.428 289.13 490.347 289.137C488.396 289.135 488.396 289.135 486.406 289.133C485.203 289.132 483.999 289.131 482.76 289.129C480 289 480 289 479 288C478.746 283.527 478.815 279.042 478.812 274.562C478.794 272.663 478.794 272.663 478.775 270.725C478.773 269.517 478.771 268.31 478.769 267.066C478.765 265.952 478.761 264.838 478.757 263.69C479.245 258.279 482.398 258.744 487.031 258.734Z" fill="#030303"/>
<path d="M486.406 167.867C487.707 167.866 489.008 167.865 490.348 167.863C491.369 167.866 491.369 167.866 492.411 167.87C494.492 167.875 496.572 167.87 498.653 167.863C500.604 167.865 500.604 167.865 502.594 167.867C503.797 167.868 505.001 167.869 506.24 167.871C509 168 509 168 510 169C510.254 173.473 510.185 177.958 510.188 182.438C510.2 183.704 510.212 184.971 510.225 186.275C510.228 188.086 510.228 188.086 510.231 189.934C510.235 191.048 510.239 192.162 510.243 193.31C510 196 510 196 508 198C505.326 198.259 505.326 198.259 501.969 198.266C500.766 198.268 499.564 198.271 498.324 198.273C497.062 198.266 495.8 198.258 494.5 198.25C493.238 198.258 491.976 198.265 490.676 198.273C489.473 198.271 488.271 198.268 487.031 198.266C485.924 198.263 484.816 198.261 483.674 198.259C481 198 481 198 479 196C478.757 193.31 478.757 193.31 478.77 189.934C478.772 188.726 478.774 187.519 478.776 186.275C478.788 185.009 478.8 183.742 478.813 182.438C478.813 181.167 478.814 179.897 478.815 178.588C478.866 167.874 478.866 167.874 486.406 167.867Z" fill="#050505"/>
</g>
<defs>
<filter id="filter0_d_52_35" x="-183" y="-66" width="2092" height="556" filterUnits="userSpaceOnUse" color-interpolation-filters="sRGB">
<feFlood flood-opacity="0" result="BackgroundImageFix"/>
<feColorMatrix in="SourceAlpha" type="matrix" values="0 0 0 0 0 0 0 0 0 0 0 0 0 0 0 0 0 0 127 0" result="hardAlpha"/>
<feOffset dy="4"/>
<feGaussianBlur stdDeviation="2"/>
<feComposite in2="hardAlpha" operator="out"/>
<feColorMatrix type="matrix" values="0 0 0 0 0 0 0 0 0 0 0 0 0 0 0 0 0 0 0.25 0"/>
<feBlend mode="normal" in2="BackgroundImageFix" result="effect1_dropShadow_52_35"/>
<feBlend mode="normal" in="SourceGraphic" in2="effect1_dropShadow_52_35" result="shape"/>
</filter>
</defs>
</svg>
